# xmcd
#
# Track frame offsets:
#	150
#	14573
#	30709
#	44847
#	58059
#	69779
#	81214
#	92678
#	109972
#	123598
#	139026
#	139958
#	140704
#	141604
#	142227
#
# Disc length: 1905 seconds
#
# Revision: 1
# Processed by: cddbd v1.5.2PL0 Copyright (c) Steve Scherf et al.
# Submitted via: audiograbber 1.83.01
#
DISCID=f6076f0f
DTITLE=Various Artist - Hillcrest #04
DYEAR=1900
DGENRE=Country
TTITLE0=Ronnie Masters - Crazy As A Man Could Be
TTITLE1=Leslie-Amme Dupuis - Old Fashioned Broken Heart
TTITLE2=Barry Laporte - A Glass Full Of Whiskey
TTITLE3=Ashley Bee - I've Got A Tiger By The Tail
TTITLE4=Ray Meyers - Johnny Wagoners Breakdown (instrumental)
TTITLE5=Dale McKay - Thanks To You
TTITLE6=Janet McGarry - The Pilot (Gospel)
TTITLE7=Joyce-Meré - Are You For Real
TTITLE8=Brad Kepler - When In Texas
TTITLE9=Erica Dawson - I Believe In Me
TTITLE10=Ashkey Bee - Radio Liner
TTITLE11=Erica Dawson - Radio Liner
TTITLE12=Joyce-Meré - Radio Liner
TTITLE13=Ronnie Masters - Radio Liner
TTITLE14=Janet McGarry - Radio Liner
EXTD=
EXTT0=
EXTT1=
EXTT2=
EXTT3=
EXTT4=
EXTT5=
EXTT6=
EXTT7=
EXTT8=
EXTT9=
EXTT10=
EXTT11=
EXTT12=
EXTT13=
EXTT14=
PLAYORDER=
